<svg width="3553" height="507" viewBox="0 0 3553 507" fill="none" xmlns="http://www.w3.org/2000/svg">
<path fill-rule="evenodd" clip-rule="evenodd" d="M385.432 250.053H429.565L420.823 234.93L424.718 232.686L410.094 207.391L395.398 232.815L385.432 250.053Z" fill="white"/>
<path fill-rule="evenodd" clip-rule="evenodd" d="M404.066 223.082H409.951V288.301H404.066V223.082Z" fill="white"/>
<path fill-rule="evenodd" clip-rule="evenodd" d="M200.07 242.998H225.748L220.662 234.199L222.928 232.894L214.42 218.176L205.869 232.969L200.07 242.998Z" fill="white"/>
<path fill-rule="evenodd" clip-rule="evenodd" d="M210.912 227.306H214.336V265.252H210.912V227.306Z" fill="white"/>
<path fill-rule="evenodd" clip-rule="evenodd" d="M789.006 278.395H826.764L819.287 265.394L822.616 263.463L810.107 241.715L797.53 263.574L789.006 278.395Z" fill="white"/>
<path fill-rule="evenodd" clip-rule="evenodd" d="M805.188 255.021H809.862V311.119H805.188V255.021Z" fill="white"/>
<path fill-rule="evenodd" clip-rule="evenodd" d="M212.82 331.58H242.827L236.885 321.28L239.53 319.75L229.59 302.521L219.599 319.839L212.82 331.58Z" fill="white"/>
<path fill-rule="evenodd" clip-rule="evenodd" d="M225.771 312.944H229.246V357.48H225.771V312.944Z" fill="white"/>
<path fill-rule="evenodd" clip-rule="evenodd" d="M601.195 276.66H631.202L625.26 266.36L627.905 264.831L617.965 247.601L607.974 264.919L601.195 276.66Z" fill="white"/>
<path fill-rule="evenodd" clip-rule="evenodd" d="M614.146 258.024H617.621V302.561H614.146V258.024Z" fill="white"/>
<path d="M537.293 60.6238C542.394 63.5461 547.866 65.698 553.51 67.0414C550.037 67.6607 546.634 68.5155 543.394 69.7106C550.038 71.2134 556.871 72.5457 563.755 73.5961C560.179 74.335 556.604 75.0777 552.373 75.7656C558.267 77.3408 563.695 78.6193 569.106 79.6586C566.806 80.5097 564.462 81.2811 561.92 81.8754C571.735 83.5053 577.224 84.7291 586.444 88.9012C595.517 94.2498 604.548 98.2485 611.415 98.8029L619.954 100.287L619.618 100.621C616.017 104.322 614.801 105.564 613.207 108.871C612.526 110.283 612.423 111.525 612.897 112.572L613.81 113.749C612.94 114.825 611.975 116.418 612.363 117.885C612.561 118.67 613.087 119.276 613.922 119.673C613.405 120.786 612.932 122.39 613.535 123.733C613.94 124.624 614.707 125.207 615.827 125.487C615.568 126.765 615.448 128.667 616.482 129.974C617.223 130.911 618.36 131.328 619.877 131.234C619.842 132.338 620.015 133.736 620.988 134.638C621.979 135.554 623.427 135.666 625.374 134.961C625.615 135.739 626.081 136.623 626.968 137.028C627.951 137.474 629.114 137.195 630.432 136.202L631.802 136.844C633.207 137.093 634.81 136.391 636.576 134.758C637.067 134.953 637.757 135.102 638.601 134.971C640.023 134.747 641.393 133.783 642.677 132.106L643.108 132.172C644.624 132.226 646.46 130.77 648.7 127.71C649.881 127.573 652.448 126.699 654.637 122.205C656.119 122.14 659.109 121.184 660.497 114.878C661.108 112.079 661.487 109.077 661.617 105.962C663.073 104.459 666.054 101.262 668.26 98.165C670.561 94.9386 673.603 92.6746 677.05 91.6177C681.237 90.328 685.916 88.2633 690.966 85.4606C700.616 80.1046 708.699 74.8274 717.807 66.3173C720.78 63.5461 723.856 60.4208 727.148 56.843C730.948 52.696 734.886 47.2166 738.298 41.4221C741.848 38.6333 745.183 35.5264 748.259 32.1434C746.191 32.8572 744.183 33.7371 742.236 34.7653C746.139 31.7744 749.741 28.4173 752.714 24.3824C750.482 25.4866 748.328 26.7586 746.26 28.1855C750.818 24.375 755.015 20.062 758.729 15.3068C755.239 16.6251 751.921 18.4395 748.854 20.6665C752.688 16.9404 756.264 12.9148 759.556 8.63143C756.419 9.09499 753.481 10.5506 750.853 12.4883C753.731 8.77053 756.04 4.81167 756.186 -0.000119262C749.81 7.67649 743.933 15.9372 736.23 22.1953C728.828 28.192 720.349 32.4113 711.775 36.0911C707.579 37.9018 703.382 39.6726 699.195 41.4508C697.402 42.212 695.61 42.9722 693.818 43.7324L690.337 45.2066C691 43.8808 692.241 42.1388 694.568 40.6257L695.291 40.1547L695.007 39.2924C694.964 39.1515 693.87 35.9465 690.983 35.0156C688.967 34.3778 686.666 35.0156 684.15 36.9098C683.503 36.5361 682.452 36.1124 681.143 36.232C679.255 36.3989 677.446 37.5865 675.765 39.756C674.835 40.9511 673.913 42.2407 673.026 43.4896C669.923 47.8396 666.718 52.3371 662.892 53.319L661.126 53.8011C651.871 56.4156 643.728 48.2559 635.577 44.7903C631.174 42.9175 626.452 41.7188 621.721 41.9904C613.569 42.4438 605.883 46.5973 597.861 48.0529C589.761 49.5159 581.583 49.871 573.458 50.889C568.744 51.4759 564.022 51.957 559.292 52.2722C555.673 52.5225 552.062 52.6709 548.434 52.7071C544.454 52.7432 540.378 52.3557 536.432 51.78C534.536 51.5009 532.649 51.1569 530.779 50.7221C529.374 50.4068 526.85 50.2223 525.678 49.3138C531.589 53.8836 539.947 57.5272 548.607 59.7727C544.833 60.0592 541.059 60.3373 537.293 60.6238Z" fill="white"/>
<path d="M333.747 66.6682C331.102 65.4259 328.465 64.1836 325.828 62.9486C328.31 66.6933 331.309 70.1051 334.678 73.0747C332.136 72.155 329.551 71.4123 326.974 70.9414C330.973 74.3782 335.143 77.7827 339.452 81.0276C336.798 80.1478 334.144 79.2744 331.05 78.1155C334.523 81.3131 337.762 84.1604 341.08 86.8398C339.244 86.518 337.409 86.1156 335.505 85.5325C341.597 90.2441 344.906 93.0691 349.766 99.1538C354.143 105.922 358.934 111.818 363.389 114.748L368.671 118.88L368.335 118.967C364.699 119.938 363.467 120.264 361.304 121.738C360.39 122.368 359.908 123.11 359.89 123.943L360.115 125.03C359.176 125.37 358.003 126.011 357.788 127.08L358.253 128.786C357.547 129.292 356.694 130.118 356.668 131.186L357.642 133.15C357.047 133.855 356.34 135.004 356.607 136.209C356.806 137.083 357.435 137.767 358.495 138.278C358.107 138.954 357.762 139.9 358.133 140.838C358.503 141.783 359.434 142.395 360.985 142.682L361.39 144.583C361.898 145.231 362.777 145.492 363.992 145.361L364.716 146.278C365.578 146.966 366.888 147.122 368.62 146.759L369.912 147.65C370.946 148.049 372.187 147.958 373.6 147.389L373.876 147.585C374.884 148.197 376.599 147.965 379.106 146.89C379.959 147.245 381.976 147.669 384.923 145.666C385.948 146.176 388.283 146.705 391.273 143.275C392.609 141.743 393.849 140.001 394.952 138.093C396.426 137.694 399.485 136.815 401.993 135.692C404.604 134.533 407.395 134.254 410.075 134.884C413.324 135.656 417.158 136.108 421.484 136.245C429.756 136.517 436.934 136.239 445.878 134.319C448.79 133.689 451.892 132.892 455.287 131.881C459.208 130.701 463.663 128.746 467.86 126.392C471.169 125.965 474.443 125.279 477.623 124.306C476.003 123.98 474.356 123.776 472.702 123.693C476.312 123.277 479.845 122.528 483.18 121.107C481.31 120.97 479.441 120.959 477.571 121.071C481.896 120.394 486.144 119.26 490.203 117.678C487.42 117.186 484.585 117.084 481.784 117.334C485.593 116.425 489.332 115.248 492.952 113.792C490.677 112.911 488.221 112.717 485.817 112.949C488.971 111.688 491.823 110.073 493.503 107.107C486.679 109.537 480.009 112.514 472.754 113.542C465.8 114.534 458.682 113.994 451.694 113.086C448.273 112.644 444.861 112.18 441.44 111.724C439.984 111.528 438.528 111.336 437.072 111.13L434.237 110.749C435.116 110.167 436.52 109.537 438.588 109.464L439.234 109.435L439.329 108.794C439.338 108.682 439.648 106.263 438.002 104.593C436.848 103.434 435.09 102.975 432.772 103.224C432.453 102.743 431.884 102.084 430.962 101.667C429.635 101.062 428.024 101.128 426.171 101.859C425.154 102.257 424.112 102.72 423.104 103.177C419.588 104.734 415.952 106.357 413.039 105.532L411.695 105.18C404.586 103.344 401.76 95.1662 397.383 89.9289C395.022 87.09 392.221 84.5692 388.947 82.9542C383.285 80.1839 376.745 79.9048 370.842 77.8003C364.897 75.6855 359.262 72.8318 353.437 70.4194C350.059 69.0222 346.716 67.5481 343.415 65.9729C340.899 64.7667 338.4 63.5058 335.944 62.1587C333.239 60.6957 330.619 58.9138 328.138 57.0706C326.949 56.1908 325.785 55.2637 324.665 54.2892C323.821 53.5577 322.175 52.4999 321.684 51.4893C324.174 56.5783 328.637 62.0029 333.747 66.6682Z" fill="white"/>
<path d="M886.522 454.542C863.446 454.967 830.496 456.032 790.945 456.506C751.403 456.942 705.258 457.961 655.826 458.139C606.393 458.362 553.664 458.603 500.935 458.844C448.206 458.603 395.477 458.355 346.044 458.132C296.611 457.926 250.475 456.942 210.924 456.495C171.381 456.014 138.424 454.967 115.356 454.531C92.2878 453.878 79.1012 453.504 79.1012 453.504C79.1012 453.504 92.2878 453.121 115.356 452.468C138.424 452.029 171.381 450.985 210.924 450.5C250.475 450.054 296.611 449.073 346.044 448.867C395.477 448.644 448.206 448.393 500.935 448.152C553.664 448.393 606.393 448.633 655.826 448.857C705.258 449.038 751.403 450.046 790.945 450.483C830.496 450.968 863.446 452.029 886.522 452.458C909.59 453.121 922.768 453.504 922.768 453.504C922.768 453.504 909.59 453.878 886.522 454.542ZM199.922 281.194C233.76 250.33 268.478 218.331 300.713 182.947L315.585 282.042L310.603 172.172L312.073 170.574C313.069 169.432 314.082 169.189 314.755 169.189C316.109 169.189 317.379 170.102 318.251 171.691C343.42 217.804 373.911 258.003 404.295 294.674C387.679 310.394 370.756 325.636 353.633 339.723L344.375 300.212L345.728 330.022L316.848 191.737L326.903 354.246C271.608 330.734 211.605 347.058 155.048 365.371C142.293 369.495 129.597 373.937 116.875 378.216L205.527 291.879L107.699 370.068C137.369 338.373 168.982 309.431 199.922 281.194ZM309.831 157.272C308.535 157.987 307.273 158.898 306.119 160.213C307.273 158.898 308.535 157.98 309.831 157.272ZM462.928 301.195L518.032 218.91C519.203 217.169 521.296 216.087 523.496 216.087C525.14 216.087 526.693 216.688 527.881 217.777L510.941 310.736L537.189 226.566C552.086 240.566 566.834 254.814 581.415 269.319L580.211 268.653C572.398 264.308 564.75 259.092 564.75 259.092C564.75 259.092 570.712 267.606 577.189 275.565C579.879 278.926 582.636 282.139 584.953 284.784C577.247 291.673 569.383 298.363 562.391 306.196C546.091 324.474 533.153 350.736 510.991 355.464C503.841 356.989 496.783 355.936 489.99 353.248L521.096 236.089L481.388 348.835C473.715 344.162 466.516 337.8 460.171 331.02C458.859 329.629 457.564 328.155 456.269 326.725L483.738 283.801L462.928 301.195ZM676.145 253.244L704.818 279.488L683.278 243.595L683.602 243.155C684.225 242.29 685.786 241.362 687.43 241.362L688.593 241.557C721.526 254.179 754.807 273.018 789.774 298.603C786.885 302.696 783.987 306.758 781.213 311.012L773.117 303.15L775.118 314.575C767.362 313.235 759.989 309.976 752.607 306.259C751.046 305.473 749.675 305.034 748.305 304.598L693.209 249.579L728.991 297.514L716.46 290.333L727.703 306.064C710.822 309.986 694.073 314.962 677.441 320.58C659.67 326.581 642.016 333.246 624.354 339.866C621.456 340.948 618.55 342.009 615.644 343.091L646.774 306.947L602.366 344.842C626.605 317.802 651.109 287.304 676.145 253.244ZM523.496 201.483C518.605 201.609 513.748 204.028 510.501 208.882C487.69 242.942 464.88 277.003 442.061 311.064C440.707 313.084 439.354 315.112 438 317.132C434.006 312.449 429.995 307.787 426.009 303.097C407.949 281.846 390.037 260.083 373.073 237.062C370.291 233.304 367.542 229.507 364.827 225.683C362.087 221.824 359.388 217.936 356.723 214.018C354.04 210.078 351.4 206.111 348.801 202.119C346.185 198.089 343.619 194.033 341.095 189.951C338.554 185.834 336.062 181.688 333.621 177.507C332.392 175.407 331.18 173.289 329.976 171.174C328.78 169.056 327.692 166.816 326.405 164.76C325.774 163.759 325.251 162.694 324.562 161.731C323.839 160.723 323.026 159.791 322.112 158.978C320.377 157.453 318.284 156.362 316.059 156.033C312.372 155.485 308.602 157.363 306.094 160.231C286.663 182.553 266.178 203.26 245.244 223.261C234.773 233.259 224.185 243.086 213.556 252.839C192.307 272.348 170.875 291.599 149.858 311.486C118.328 341.315 87.7208 372.57 59.9777 408.274C40.4472 433.412 20.5177 457.916 0.28964 481.909C-19.9384 505.902 1026.2 522.589 992.188 481.909C958.176 441.229 923.375 401.941 886.697 366.191C879.132 358.814 871.5 351.559 863.819 344.448C848.441 330.246 832.813 316.64 816.887 303.91C792.997 284.813 768.425 267.669 743.032 253.341C737.494 250.214 731.897 247.214 726.242 244.345C720.62 241.494 714.94 238.779 709.194 236.214C706.246 234.892 703.274 233.633 700.293 232.383C697.403 231.176 694.571 229.675 691.59 228.775C688.717 227.906 684.233 228.416 681.36 229.944C679.674 230.838 678.13 232.035 676.976 233.633C660.899 255.885 644.383 277.449 627.418 298.213C622.884 293.459 618.334 288.731 613.767 284.024C609.2 279.327 604.616 274.644 600.008 269.982C595.407 265.327 590.79 260.694 586.149 256.083C581.515 251.474 576.856 246.882 572.181 242.317C567.515 237.761 562.823 233.225 558.115 228.712C553.406 224.2 548.682 219.706 543.94 215.24C541.615 213.062 539.29 210.881 536.957 208.7C534.623 206.53 530.455 201.295 523.496 201.483Z" fill="#627A40"/>
<path d="M1347.49 253.066C1347.49 275.647 1346.48 296.635 1344.46 316.032C1342.43 335.428 1338.24 352.219 1331.88 366.404C1325.52 380.59 1316.42 391.735 1304.57 399.841C1293.01 407.947 1277.4 412 1257.75 412C1238.38 412 1222.77 407.947 1210.92 399.841C1199.07 391.735 1189.97 380.59 1183.61 366.404C1177.25 352.219 1173.06 335.428 1171.03 316.032C1169.01 296.635 1168 275.647 1168 253.066C1168 230.485 1169.01 209.641 1171.03 190.534C1173.35 171.138 1177.68 154.347 1184.04 140.162C1190.4 125.976 1199.5 114.975 1211.36 107.159C1223.49 99.053 1239.25 95 1258.61 95C1278.27 95 1293.87 99.053 1305.44 107.159C1317 114.975 1325.96 125.976 1332.32 140.162C1338.67 154.347 1342.72 171.138 1344.46 190.534C1346.48 209.641 1347.49 230.485 1347.49 253.066ZM1220.03 253.066C1220.03 276.515 1221.04 295.477 1223.06 309.952C1225.37 324.427 1228.26 335.717 1231.73 343.823C1235.49 351.64 1239.54 356.995 1243.87 359.89C1248.5 362.785 1253.12 364.233 1257.75 364.233C1262.37 364.233 1266.85 362.785 1271.19 359.89C1275.81 356.995 1279.86 351.64 1283.32 343.823C1287.08 335.717 1289.97 324.427 1292 309.952C1294.31 295.477 1295.46 276.515 1295.46 253.066C1295.46 229.906 1294.31 211.089 1292 196.614C1289.97 182.139 1287.23 170.993 1283.76 163.177C1280.29 155.071 1276.24 149.715 1271.62 147.11C1267.28 144.215 1262.95 142.767 1258.61 142.767C1253.99 142.767 1249.36 144.215 1244.74 147.11C1240.4 149.715 1236.36 155.071 1232.6 163.177C1228.84 170.993 1225.81 182.139 1223.49 196.614C1221.18 211.089 1220.03 229.906 1220.03 253.066Z" fill="white"/>
<path d="M1516.52 236.999L1570.71 101.514H1634.01C1631.7 107.304 1629.96 113.673 1628.81 120.621C1627.94 127.279 1627.51 133.937 1627.51 140.596V366.404C1627.51 373.063 1628.09 379.866 1629.24 386.814C1630.4 393.472 1631.99 399.696 1634.01 405.486H1571.15C1573.17 399.696 1574.76 393.472 1575.91 386.814C1577.07 379.866 1577.65 373.063 1577.65 366.404V215.721L1516.95 355.982H1514.35L1453.65 215.721V366.404C1453.65 373.063 1454.23 379.866 1455.39 386.814C1456.54 393.472 1458.13 399.696 1460.16 405.486H1397.29C1399.31 399.696 1400.9 393.472 1402.06 386.814C1403.22 379.866 1403.79 373.063 1403.79 366.404V140.596C1403.79 133.937 1403.22 127.279 1402.06 120.621C1401.19 113.673 1399.6 107.304 1397.29 101.514H1460.59L1514.78 236.999H1516.52Z" fill="white"/>
<path d="M1745.63 135.385C1747.65 126.121 1748.23 119.028 1747.36 114.107C1746.49 108.896 1744.9 104.698 1742.59 101.514H1802.42L1863.55 366.404C1865 372.773 1867.31 379.432 1870.49 386.379C1873.67 393.327 1876.99 399.696 1880.46 405.486H1804.59C1808.64 399.407 1811.09 393.038 1811.96 386.379C1812.83 379.432 1812.54 372.773 1811.09 366.404L1807.19 348.166H1744.76L1740.86 366.404C1739.41 372.773 1739.12 379.432 1739.99 386.379C1740.86 393.038 1743.31 399.407 1747.36 405.486H1675.39C1678.86 399.696 1682.18 393.327 1685.36 386.379C1688.83 379.432 1691.29 372.773 1692.73 366.404L1745.63 135.385ZM1754.3 304.741H1797.65L1775.98 203.996L1754.3 304.741Z" fill="white"/>
<path d="M1930.49 140.596C1930.49 133.937 1929.91 127.279 1928.76 120.621C1927.89 113.673 1926.3 107.304 1923.99 101.514H2002.9C2013.88 101.514 2024.57 103.106 2034.98 106.29C2045.38 109.475 2054.63 114.831 2062.73 122.358C2070.82 129.595 2077.32 139.293 2082.24 151.452C2087.44 163.321 2090.04 177.941 2090.04 195.311C2090.04 217.313 2086.14 234.972 2078.33 248.289C2070.82 261.606 2060.99 271.594 2048.85 278.252L2074 365.97C2076.02 372.628 2078.77 379.432 2082.24 386.379C2085.99 393.327 2090.18 399.696 2094.81 405.486H2024.57C2026.89 399.407 2027.61 393.038 2026.74 386.379C2026.16 379.432 2025.01 372.773 2023.27 366.404L2002.03 289.108L1980.35 289.542V366.404C1980.35 373.063 1980.93 379.866 1982.09 386.814C1983.24 393.472 1984.83 399.696 1986.85 405.486H1923.99C1926.01 399.696 1927.6 393.472 1928.76 386.814C1929.91 379.866 1930.49 373.063 1930.49 366.404V140.596ZM1980.35 147.544V243.512H1995.53C2003.62 243.512 2010.41 242.21 2015.9 239.604C2021.39 236.999 2025.73 233.525 2028.91 229.182C2032.09 224.84 2034.4 219.774 2035.85 213.984C2037.29 207.904 2038.01 201.68 2038.01 195.311C2038.01 188.653 2037.29 182.428 2035.85 176.638C2034.69 170.848 2032.38 165.782 2028.91 161.44C2025.73 157.097 2021.39 153.768 2015.9 151.452C2010.7 148.847 2004.05 147.544 1995.96 147.544H1980.35Z" fill="white"/>
<path d="M2317.8 253.066C2317.8 275.647 2316.79 296.635 2314.77 316.032C2312.74 335.428 2308.55 352.219 2302.19 366.404C2295.83 380.59 2286.73 391.735 2274.88 399.841C2263.32 407.947 2247.71 412 2228.06 412C2208.69 412 2193.08 407.947 2181.23 399.841C2169.38 391.735 2160.28 380.59 2153.92 366.404C2147.56 352.219 2143.37 335.428 2141.34 316.032C2139.32 296.635 2138.31 275.647 2138.31 253.066C2138.31 230.485 2139.32 209.641 2141.34 190.534C2143.66 171.138 2147.99 154.347 2154.35 140.162C2160.71 125.976 2169.81 114.975 2181.66 107.159C2193.8 99.053 2209.56 95 2228.92 95C2248.58 95 2264.18 99.053 2275.75 107.159C2287.31 114.975 2296.27 125.976 2302.63 140.162C2308.98 154.347 2313.03 171.138 2314.77 190.534C2316.79 209.641 2317.8 230.485 2317.8 253.066ZM2190.34 253.066C2190.34 276.515 2191.35 295.477 2193.37 309.952C2195.68 324.427 2198.57 335.717 2202.04 343.823C2205.8 351.64 2209.85 356.995 2214.18 359.89C2218.81 362.785 2223.43 364.233 2228.06 364.233C2232.68 364.233 2237.16 362.785 2241.5 359.89C2246.12 356.995 2250.17 351.64 2253.63 343.823C2257.39 335.717 2260.28 324.427 2262.31 309.952C2264.62 295.477 2265.77 276.515 2265.77 253.066C2265.77 229.906 2264.62 211.089 2262.31 196.614C2260.28 182.139 2257.54 170.993 2254.07 163.177C2250.6 155.071 2246.55 149.715 2241.93 147.11C2237.59 144.215 2233.26 142.767 2228.92 142.767C2224.3 142.767 2219.67 144.215 2215.05 147.11C2210.71 149.715 2206.67 155.071 2202.91 163.177C2199.15 170.993 2196.12 182.139 2193.8 196.614C2191.49 211.089 2190.34 229.906 2190.34 253.066Z" fill="white"/>
<path d="M2490.07 140.596C2491.51 134.227 2491.8 127.713 2490.93 121.055C2490.07 114.107 2487.61 107.593 2483.56 101.514H2555.53C2552.06 107.304 2548.6 113.673 2545.13 120.621C2541.95 127.568 2539.64 134.227 2538.19 140.596L2477.06 405.486H2431.1L2369.97 140.596C2368.53 134.227 2366.07 127.568 2362.6 120.621C2359.42 113.673 2356.1 107.304 2352.63 101.514H2426.33C2422.29 107.593 2419.83 114.107 2418.96 121.055C2418.1 127.713 2418.39 134.227 2419.83 140.596L2454.95 303.004L2490.07 140.596Z" fill="white"/>
<path d="M2719.09 95C2724.87 97.0265 2731.08 98.6187 2737.73 99.7767C2744.67 100.935 2751.46 101.514 2758.11 101.514H2820.97C2827.62 101.514 2834.27 100.935 2840.91 99.7767C2847.85 98.6187 2854.21 97.0265 2859.99 95L2871.7 153.623C2865.92 151.597 2859.56 150.005 2852.62 148.847C2845.97 147.689 2839.32 147.11 2832.68 147.11H2815.34V366.404C2815.34 373.063 2815.77 379.866 2816.64 386.814C2817.79 393.472 2819.53 399.696 2821.84 405.486H2758.97C2761.29 399.696 2762.88 393.472 2763.74 386.814C2764.9 379.866 2765.48 373.063 2765.48 366.404V147.11H2746.4C2739.75 147.11 2732.96 147.689 2726.02 148.847C2719.38 150.005 2713.16 151.597 2707.38 153.623L2719.09 95Z" fill="white"/>
<path d="M3094.62 253.066C3094.62 275.647 3093.61 296.635 3091.59 316.032C3089.56 335.428 3085.37 352.219 3079.01 366.404C3072.65 380.59 3063.55 391.735 3051.7 399.841C3040.14 407.947 3024.53 412 3004.88 412C2985.51 412 2969.9 407.947 2958.05 399.841C2946.2 391.735 2937.1 380.59 2930.74 366.404C2924.38 352.219 2920.19 335.428 2918.16 316.032C2916.14 296.635 2915.13 275.647 2915.13 253.066C2915.13 230.485 2916.14 209.641 2918.16 190.534C2920.48 171.138 2924.81 154.347 2931.17 140.162C2937.53 125.976 2946.63 114.975 2958.49 107.159C2970.62 99.053 2986.38 95 3005.74 95C3025.4 95 3041 99.053 3052.57 107.159C3064.13 114.975 3073.09 125.976 3079.45 140.162C3085.8 154.347 3089.85 171.138 3091.59 190.534C3093.61 209.641 3094.62 230.485 3094.62 253.066ZM2967.16 253.066C2967.16 276.515 2968.17 295.477 2970.19 309.952C2972.5 324.427 2975.39 335.717 2978.86 343.823C2982.62 351.64 2986.67 356.995 2991 359.89C2995.63 362.785 3000.25 364.233 3004.88 364.233C3009.5 364.233 3013.98 362.785 3018.32 359.89C3022.94 356.995 3026.99 351.64 3030.45 343.823C3034.21 335.717 3037.1 324.427 3039.13 309.952C3041.44 295.477 3042.59 276.515 3042.59 253.066C3042.59 229.906 3041.44 211.089 3039.13 196.614C3037.1 182.139 3034.36 170.993 3030.89 163.177C3027.42 155.071 3023.37 149.715 3018.75 147.11C3014.41 144.215 3010.08 142.767 3005.74 142.767C3001.12 142.767 2996.49 144.215 2991.87 147.11C2987.53 149.715 2983.49 155.071 2979.73 163.177C2975.97 170.993 2972.94 182.139 2970.62 196.614C2968.31 211.089 2967.16 229.906 2967.16 253.066Z" fill="white"/>
<path d="M3319.14 324.716C3319.14 353.666 3311.63 375.523 3296.6 390.288C3281.57 404.763 3261.19 412 3235.47 412C3210.61 412 3190.67 404.763 3175.64 390.288C3160.61 375.523 3153.09 353.666 3153.09 324.716V140.596C3153.09 133.937 3152.51 127.279 3151.36 120.621C3150.49 113.673 3148.9 107.304 3146.59 101.514H3209.45C3207.14 107.304 3205.41 113.673 3204.25 120.621C3203.38 127.279 3202.95 133.937 3202.95 140.596V324.716C3202.95 338.033 3205.99 347.587 3212.06 353.377C3218.13 359.167 3226.22 362.062 3236.33 362.062C3246.16 362.062 3254.11 359.167 3260.18 353.377C3266.25 347.587 3269.28 338.033 3269.28 324.716V140.596C3269.28 133.937 3268.71 127.279 3267.55 120.621C3266.68 113.673 3265.09 107.304 3262.78 101.514H3325.65C3323.33 107.304 3321.6 113.673 3320.44 120.621C3319.58 127.279 3319.14 133.937 3319.14 140.596V324.716Z" fill="white"/>
<path d="M3388.68 140.596C3388.68 133.937 3388.11 127.279 3386.95 120.621C3386.08 113.673 3384.49 107.304 3382.18 101.514H3461.09C3472.07 101.514 3482.76 103.106 3493.17 106.29C3503.58 109.475 3512.82 114.831 3520.92 122.358C3529.01 129.595 3535.51 139.293 3540.43 151.452C3545.63 163.321 3548.23 177.941 3548.23 195.311C3548.23 217.313 3544.33 234.972 3536.52 248.289C3529.01 261.606 3519.18 271.594 3507.04 278.252L3532.19 365.97C3534.21 372.628 3536.96 379.432 3540.43 386.379C3544.18 393.327 3548.38 399.696 3553 405.486H3482.76C3485.08 399.407 3485.8 393.038 3484.93 386.379C3484.35 379.432 3483.2 372.773 3481.46 366.404L3460.22 289.108L3438.54 289.542V366.404C3438.54 373.063 3439.12 379.866 3440.28 386.814C3441.43 393.472 3443.02 399.696 3445.05 405.486H3382.18C3384.2 399.696 3385.79 393.472 3386.95 386.814C3388.11 379.866 3388.68 373.063 3388.68 366.404V140.596ZM3438.54 147.544V243.512H3453.72C3461.81 243.512 3468.6 242.21 3474.09 239.604C3479.59 236.999 3483.92 233.525 3487.1 229.182C3490.28 224.84 3492.59 219.774 3494.04 213.984C3495.48 207.904 3496.2 201.68 3496.2 195.311C3496.2 188.653 3495.48 182.428 3494.04 176.638C3492.88 170.848 3490.57 165.782 3487.1 161.44C3483.92 157.097 3479.59 153.768 3474.09 151.452C3468.89 148.847 3462.24 147.544 3454.15 147.544H3438.54Z" fill="white"/>
</svg>
