<svg width="2025" height="1586" viewBox="0 0 2025 1586" fill="none" xmlns="http://www.w3.org/2000/svg">
<path fill-rule="evenodd" clip-rule="evenodd" d="M786 510H876L858.174 479.16L866.115 474.584L836.294 423L806.324 474.848L786 510Z" fill="white"/>
<path fill-rule="evenodd" clip-rule="evenodd" d="M824 455H836V588H824V455Z" fill="white"/>
<path fill-rule="evenodd" clip-rule="evenodd" d="M408 495.618H460.364L449.992 477.675L454.612 475.012L437.262 445L419.825 475.166L408 495.618Z" fill="white"/>
<path fill-rule="evenodd" clip-rule="evenodd" d="M430.109 463.618H437.091V541H430.109V463.618Z" fill="white"/>
<path fill-rule="evenodd" clip-rule="evenodd" d="M1609 567.8H1686L1670.75 541.287L1677.54 537.35L1652.03 493L1626.38 537.577L1609 567.8Z" fill="white"/>
<path fill-rule="evenodd" clip-rule="evenodd" d="M1642 520.133H1651.53V634.533H1642V520.133Z" fill="white"/>
<path fill-rule="evenodd" clip-rule="evenodd" d="M434 676.26H495.192L483.074 655.255L488.469 652.136L468.197 617L447.823 652.316L434 676.26Z" fill="white"/>
<path fill-rule="evenodd" clip-rule="evenodd" d="M460.409 638.256H467.495V729.078H460.409V638.256Z" fill="white"/>
<path fill-rule="evenodd" clip-rule="evenodd" d="M1226 564.26H1287.19L1275.07 543.255L1280.47 540.136L1260.2 505L1239.82 540.316L1226 564.26Z" fill="white"/>
<path fill-rule="evenodd" clip-rule="evenodd" d="M1252.41 526.256H1259.49V617.078H1252.41V526.256Z" fill="white"/>
<path d="M1095.69 123.708C1106.09 129.667 1117.25 134.055 1128.76 136.795C1121.68 138.058 1114.74 139.801 1108.13 142.238C1121.68 145.303 1135.61 148.019 1149.65 150.162C1142.36 151.668 1135.07 153.183 1126.44 154.586C1138.46 157.798 1149.53 160.405 1160.56 162.525C1155.87 164.26 1151.09 165.833 1145.91 167.045C1165.92 170.369 1177.12 172.865 1195.92 181.373C1214.42 192.28 1232.84 200.435 1246.84 201.565L1264.26 204.592L1263.57 205.273C1256.23 212.82 1253.75 215.354 1250.5 222.096C1249.11 224.975 1248.9 227.509 1249.86 229.643L1251.73 232.045C1249.95 234.238 1247.98 237.488 1248.77 240.479C1249.18 242.08 1250.25 243.315 1251.96 244.126C1250.9 246.395 1249.93 249.666 1251.16 252.405C1251.99 254.222 1253.55 255.411 1255.84 255.98C1255.31 258.588 1255.07 262.465 1257.17 265.131C1258.69 267.043 1261.01 267.893 1264.1 267.701C1264.03 269.952 1264.38 272.804 1266.36 274.643C1268.39 276.511 1271.34 276.74 1275.31 275.301C1275.8 276.887 1276.75 278.691 1278.56 279.517C1280.56 280.427 1282.94 279.858 1285.62 277.833L1288.42 279.141C1291.28 279.65 1294.55 278.218 1298.15 274.887C1299.15 275.286 1300.56 275.589 1302.28 275.322C1305.18 274.864 1307.98 272.9 1310.59 269.48L1311.47 269.614C1314.56 269.724 1318.31 266.755 1322.88 260.514C1325.28 260.234 1330.52 258.453 1334.98 249.289C1338.01 249.155 1344.1 247.206 1346.93 234.347C1348.18 228.639 1348.95 222.517 1349.22 216.165C1352.19 213.1 1358.27 206.579 1362.76 200.264C1367.46 193.685 1373.66 189.068 1380.69 186.912C1389.23 184.283 1398.77 180.072 1409.07 174.357C1428.75 163.434 1445.23 152.673 1463.8 135.318C1469.87 129.667 1476.14 123.293 1482.85 115.997C1490.6 107.54 1498.63 96.3666 1505.59 84.5499C1512.83 78.8628 1519.63 72.5271 1525.9 65.628C1521.69 67.0838 1517.59 68.8781 1513.62 70.9748C1521.58 64.8755 1528.93 58.0295 1534.99 49.8013C1530.44 52.0531 1526.04 54.6471 1521.83 57.5568C1531.12 49.7862 1539.68 40.9908 1547.25 31.2936C1540.14 33.9821 1533.37 37.6821 1527.12 42.2235C1534.94 34.6249 1542.23 26.4156 1548.94 17.6807C1542.55 18.6261 1536.55 21.5945 1531.19 25.546C1537.06 17.9644 1541.77 9.8912 1542.07 0.0786379C1529.07 15.7334 1517.08 32.5792 1501.37 45.3412C1486.28 57.57 1468.99 66.1745 1451.5 73.6786C1442.95 77.3711 1434.39 80.9821 1425.85 84.6084C1422.19 86.1607 1418.54 87.711 1414.88 89.2614L1407.78 92.2676C1409.14 89.5639 1411.67 86.0114 1416.41 82.9258L1417.89 81.9654L1417.31 80.2069C1417.22 79.9196 1414.99 73.3836 1409.1 71.4853C1404.99 70.1846 1400.3 71.4854 1395.17 75.348C1393.85 74.5861 1391.71 73.722 1389.04 73.9659C1385.19 74.3062 1381.5 76.7281 1378.07 81.1523C1376.17 83.5894 1374.29 86.2193 1372.48 88.7661C1366.16 97.6371 1359.62 106.809 1351.82 108.811L1348.22 109.794C1329.34 115.126 1312.74 98.486 1296.11 91.4187C1287.14 87.5996 1277.51 85.1549 1267.86 85.7089C1251.24 86.6334 1235.56 95.1036 1219.2 98.0719C1202.68 101.055 1186.01 101.78 1169.44 103.856C1159.82 105.052 1150.2 106.033 1140.55 106.676C1133.17 107.187 1125.81 107.489 1118.41 107.563C1110.29 107.637 1101.98 106.847 1093.93 105.672C1090.06 105.103 1086.22 104.402 1082.4 103.515C1079.54 102.872 1074.39 102.496 1072 100.643C1084.05 109.962 1101.1 117.393 1118.76 121.972C1111.06 122.556 1103.37 123.123 1095.69 123.708Z" fill="white"/>
<path d="M680.601 136.032C675.206 133.499 669.829 130.965 664.452 128.447C669.513 136.083 675.628 143.041 682.499 149.097C677.315 147.221 672.044 145.707 666.79 144.746C674.943 151.755 683.448 158.697 692.234 165.315C686.822 163.521 681.409 161.739 675.101 159.376C682.183 165.897 688.789 171.703 695.554 177.167C691.812 176.511 688.069 175.691 684.186 174.501C696.609 184.11 703.357 189.871 713.267 202.279C722.194 216.081 731.964 228.106 741.049 234.08L751.82 242.507L751.136 242.685C743.72 244.664 741.207 245.328 736.796 248.334C734.934 249.62 733.95 251.132 733.914 252.832L734.372 255.048C732.456 255.742 730.066 257.048 729.627 259.228L730.576 262.707C729.135 263.739 727.396 265.424 727.343 267.602L729.328 271.606C728.116 273.045 726.675 275.388 727.219 277.845C727.623 279.626 728.907 281.022 731.068 282.063C730.278 283.444 729.574 285.372 730.33 287.285C731.085 289.212 732.983 290.46 736.146 291.044L736.972 294.922C738.009 296.243 739.801 296.775 742.279 296.508L743.755 298.378C745.512 299.781 748.184 300.098 751.716 299.359L754.351 301.176C756.46 301.989 758.99 301.804 761.872 300.645L762.434 301.044C764.49 302.292 767.987 301.819 773.101 299.626C774.84 300.35 778.952 301.214 784.962 297.13C787.053 298.17 791.814 299.25 797.912 292.254C800.635 289.131 803.166 285.578 805.415 281.687C808.42 280.874 814.659 279.08 819.772 276.79C825.097 274.427 830.79 273.858 836.255 275.144C842.879 276.717 850.698 277.639 859.52 277.919C876.389 278.473 891.026 277.906 909.266 273.99C915.206 272.707 921.531 271.081 928.455 269.02C936.45 266.613 945.536 262.626 954.093 257.825C960.841 256.954 967.518 255.556 974.002 253.571C970.699 252.906 967.342 252.492 963.968 252.321C971.331 251.472 978.536 249.945 985.336 247.048C981.523 246.768 977.71 246.746 973.897 246.975C982.718 245.594 991.381 243.282 999.657 240.055C993.981 239.051 988.2 238.843 982.489 239.353C990.256 237.5 997.882 235.099 1005.26 232.131C1000.62 230.335 995.616 229.938 990.713 230.41C997.144 227.839 1002.96 224.546 1006.39 218.497C992.47 223.453 978.869 229.524 964.074 231.62C949.893 233.643 935.378 232.543 921.127 230.69C914.151 229.788 907.193 228.843 900.217 227.913C897.247 227.514 894.278 227.123 891.308 226.703L885.527 225.926C887.319 224.738 890.183 223.453 894.4 223.305L895.718 223.245L895.911 221.938C895.929 221.71 896.562 216.777 893.206 213.372C890.851 211.008 887.266 210.071 882.539 210.579C881.889 209.598 880.729 208.254 878.849 207.405C876.143 206.17 872.857 206.304 869.079 207.796C867.005 208.607 864.88 209.553 862.824 210.483C855.654 213.659 848.239 216.968 842.299 215.285L839.558 214.569C825.061 210.823 819.298 194.147 810.371 183.467C805.556 177.678 799.845 172.537 793.168 169.244C781.623 163.594 768.285 163.025 756.248 158.733C744.124 154.421 732.632 148.601 720.753 143.682C713.865 140.833 707.047 137.826 700.317 134.614C695.186 132.154 690.09 129.583 685.081 126.836C679.564 123.852 674.223 120.219 669.162 116.46C666.737 114.666 664.364 112.775 662.08 110.788C660.358 109.296 657.002 107.139 656 105.078C661.078 115.456 670.181 126.518 680.601 136.032Z" fill="white"/>
<path d="M1807.86 927.013C1760.8 927.88 1693.61 930.052 1612.96 931.019C1532.32 931.908 1438.22 933.987 1337.41 934.349C1236.6 934.805 1129.07 935.295 1021.54 935.786C914.014 935.295 806.485 934.79 705.679 934.334C604.872 933.915 510.788 931.908 430.132 930.997C349.494 930.015 282.284 927.88 235.242 926.991C188.2 925.66 161.309 924.898 161.309 924.898C161.309 924.898 188.2 924.117 235.242 922.785C282.284 921.889 349.494 919.761 430.132 918.772C510.788 917.861 604.872 915.861 705.679 915.442C806.485 914.986 914.014 914.474 1021.54 913.982C1129.07 914.474 1236.6 914.964 1337.41 915.42C1438.22 915.79 1532.32 917.846 1612.96 918.737C1693.61 919.726 1760.8 921.889 1807.86 922.765C1854.9 924.117 1881.78 924.898 1881.78 924.898C1881.78 924.898 1854.9 925.66 1807.86 927.013ZM407.695 573.51C476.7 510.569 547.5 445.315 613.237 373.158L643.566 575.239L633.405 351.184L636.403 347.925C638.435 345.597 640.5 345.1 641.872 345.1C644.632 345.1 647.223 346.963 649.001 350.202C700.327 444.24 762.508 526.217 824.469 601C790.584 633.056 756.073 664.14 721.156 692.866L702.275 612.292L705.035 673.084L646.139 391.083L666.646 722.483C553.884 674.536 431.521 707.824 316.185 745.169C290.175 753.58 264.284 762.639 238.341 771.363L419.126 595.3L219.629 754.748C280.133 690.114 344.6 631.092 407.695 573.51ZM631.83 320.798C629.188 322.258 626.615 324.114 624.261 326.797C626.615 324.114 629.188 322.243 631.83 320.798ZM944.038 614.298L1056.41 446.496C1058.8 442.945 1063.07 440.739 1067.55 440.739C1070.91 440.739 1074.07 441.963 1076.49 444.184L1041.95 633.754L1095.48 462.108C1125.86 490.657 1155.93 519.714 1185.67 549.294L1183.21 547.935C1167.28 539.075 1151.68 528.438 1151.68 528.438C1151.68 528.438 1163.84 545.8 1177.05 562.032C1182.53 568.885 1188.16 575.438 1192.88 580.832C1177.17 594.879 1161.13 608.521 1146.87 624.496C1113.63 661.77 1087.25 715.324 1042.05 724.966C1027.47 728.076 1013.08 725.928 999.225 720.449L1062.66 481.529L981.682 711.448C966.035 701.918 951.354 688.946 938.416 675.119C935.741 672.281 933.099 669.277 930.457 666.361L986.474 578.826L944.038 614.298ZM1378.85 516.511L1437.32 570.031L1393.39 496.835L1394.05 495.939C1395.32 494.173 1398.51 492.281 1401.86 492.281L1404.23 492.679C1471.39 518.418 1539.26 556.836 1610.57 609.011C1604.67 617.359 1598.76 625.642 1593.11 634.317L1576.6 618.284L1580.68 641.582C1564.86 638.849 1549.83 632.204 1534.77 624.623C1531.59 623.022 1528.79 622.126 1526 621.237L1413.64 509.038L1486.61 606.791L1461.06 592.146L1483.99 624.226C1449.56 632.224 1415.41 642.372 1381.49 653.829C1345.25 666.067 1309.25 679.659 1273.23 693.158C1267.32 695.364 1261.39 697.528 1255.47 699.734L1318.95 626.026L1228.39 703.306C1277.82 648.164 1327.79 585.971 1378.85 516.511ZM1067.55 410.958C1057.58 411.215 1047.67 416.146 1041.05 426.045C994.534 495.503 948.017 564.963 901.484 634.422C898.723 638.543 895.963 642.678 893.203 646.797C885.058 637.248 876.879 627.74 868.75 618.176C831.92 574.84 795.393 530.458 760.798 483.513C755.125 475.849 749.52 468.107 743.982 460.308C738.394 452.438 732.891 444.51 727.455 436.52C721.986 428.485 716.601 420.394 711.301 412.253C705.966 404.036 700.733 395.765 695.586 387.44C690.404 379.044 685.324 370.589 680.345 362.064C677.839 357.781 675.367 353.461 672.912 349.15C670.473 344.83 668.255 340.261 665.63 336.07C664.343 334.028 663.277 331.856 661.871 329.892C660.398 327.836 658.738 325.936 656.875 324.278C653.336 321.168 649.069 318.942 644.53 318.272C637.012 317.155 629.324 320.984 624.21 326.834C584.585 372.354 542.81 414.581 500.12 455.369C478.766 475.758 457.176 495.797 435.5 515.686C392.167 555.47 348.461 594.729 305.602 635.284C241.304 696.113 178.887 759.85 122.311 832.662C82.4829 883.924 41.8413 933.894 0.590656 982.823C-40.66 1031.75 2092.71 1065.78 2023.34 982.823C1953.98 899.864 1883.01 819.746 1808.22 746.841C1792.79 731.798 1777.23 717.004 1761.57 702.501C1730.2 673.54 1698.34 645.793 1665.86 619.834C1617.14 580.89 1567.03 545.928 1515.25 516.71C1503.95 510.334 1492.54 504.215 1481.01 498.365C1469.54 492.55 1457.96 487.014 1446.24 481.784C1440.23 479.088 1434.17 476.519 1428.09 473.971C1422.2 471.509 1416.42 468.449 1410.34 466.613C1404.48 464.84 1395.34 465.88 1389.48 468.997C1386.04 470.819 1382.89 473.26 1380.54 476.519C1347.76 521.898 1314.07 565.874 1279.48 608.215C1270.23 598.522 1260.95 588.88 1251.64 579.281C1242.33 569.703 1232.98 560.153 1223.58 550.646C1214.2 541.153 1204.78 531.704 1195.32 522.302C1185.87 512.902 1176.37 503.539 1166.84 494.23C1157.32 484.937 1147.75 475.687 1138.15 466.485C1128.55 457.284 1118.91 448.119 1109.24 439.01C1104.5 434.569 1099.76 430.122 1095 425.674C1090.24 421.249 1081.74 410.574 1067.55 410.958Z" fill="#627A40"/>
<path d="M299.154 1293.28C299.154 1309.02 298.449 1323.65 297.038 1337.17C295.627 1350.7 292.705 1362.4 288.271 1372.29C283.837 1382.18 277.489 1389.95 269.226 1395.6C261.165 1401.25 250.282 1404.08 236.577 1404.08C223.074 1404.08 212.191 1401.25 203.928 1395.6C195.665 1389.95 189.317 1382.18 184.883 1372.29C180.449 1362.4 177.527 1350.7 176.116 1337.17C174.705 1323.65 174 1309.02 174 1293.28C174 1277.53 174.705 1263 176.116 1249.68C177.728 1236.16 180.751 1224.45 185.185 1214.56C189.619 1204.67 195.967 1197 204.23 1191.55C212.695 1185.9 223.679 1183.08 237.182 1183.08C250.886 1183.08 261.769 1185.9 269.831 1191.55C277.892 1197 284.14 1204.67 288.574 1214.56C293.007 1224.45 295.829 1236.16 297.038 1249.68C298.449 1263 299.154 1277.53 299.154 1293.28ZM210.277 1293.28C210.277 1309.62 210.982 1322.84 212.393 1332.93C214.005 1343.03 216.02 1350.9 218.439 1356.55C221.059 1362 223.88 1365.73 226.903 1367.75C230.128 1369.77 233.353 1370.78 236.577 1370.78C239.802 1370.78 242.926 1369.77 245.949 1367.75C249.173 1365.73 251.995 1362 254.413 1356.55C257.033 1350.9 259.048 1343.03 260.459 1332.93C262.071 1322.84 262.878 1309.62 262.878 1293.28C262.878 1277.13 262.071 1264.01 260.459 1253.92C259.048 1243.83 257.134 1236.06 254.715 1230.61C252.297 1224.96 249.475 1221.22 246.251 1219.41C243.228 1217.39 240.205 1216.38 237.182 1216.38C233.957 1216.38 230.733 1217.39 227.508 1219.41C224.485 1221.22 221.663 1224.96 219.043 1230.61C216.423 1236.06 214.307 1243.83 212.695 1253.92C211.083 1264.01 210.277 1277.13 210.277 1293.28Z" fill="white"/>
<path d="M417.013 1282.07L454.801 1187.62H498.938C497.325 1191.66 496.116 1196.1 495.31 1200.94C494.705 1205.58 494.403 1210.22 494.403 1214.87V1372.29C494.403 1376.93 494.806 1381.68 495.612 1386.52C496.418 1391.16 497.527 1395.5 498.938 1399.54H455.103C456.514 1395.5 457.623 1391.16 458.429 1386.52C459.235 1381.68 459.638 1376.93 459.638 1372.29V1267.24L417.315 1365.02H415.501L373.179 1267.24V1372.29C373.179 1376.93 373.582 1381.68 374.388 1386.52C375.194 1391.16 376.303 1395.5 377.713 1399.54H333.879C335.29 1395.5 336.398 1391.16 337.204 1386.52C338.011 1381.68 338.414 1376.93 338.414 1372.29V1214.87C338.414 1210.22 338.011 1205.58 337.204 1200.94C336.6 1196.1 335.491 1191.66 333.879 1187.62H378.016L415.804 1282.07H417.013Z" fill="white"/>
<path d="M576.764 1211.23C578.175 1204.77 578.578 1199.83 577.974 1196.4C577.369 1192.77 576.261 1189.84 574.648 1187.62H616.366L658.991 1372.29C659.999 1376.73 661.611 1381.37 663.828 1386.22C666.045 1391.06 668.363 1395.5 670.781 1399.54H617.878C620.699 1395.3 622.413 1390.86 623.017 1386.22C623.622 1381.37 623.42 1376.73 622.413 1372.29L619.692 1359.58H576.16L573.439 1372.29C572.431 1376.73 572.23 1381.37 572.835 1386.22C573.439 1390.86 575.152 1395.3 577.974 1399.54H527.791C530.21 1395.5 532.527 1391.06 534.744 1386.22C537.163 1381.37 538.876 1376.73 539.883 1372.29L576.764 1211.23ZM582.811 1329.3H613.041L597.926 1259.07L582.811 1329.3Z" fill="white"/>
<path d="M705.667 1214.87C705.667 1210.22 705.264 1205.58 704.458 1200.94C703.853 1196.1 702.745 1191.66 701.132 1187.62H756.152C763.81 1187.62 771.267 1188.73 778.522 1190.95C785.778 1193.17 792.227 1196.9 797.87 1202.15C803.513 1207.2 808.047 1213.96 811.473 1222.43C815.101 1230.71 816.915 1240.9 816.915 1253.01C816.915 1268.35 814.194 1280.66 808.753 1289.95C803.513 1299.23 796.661 1306.19 788.196 1310.83L805.73 1371.99C807.14 1376.63 809.055 1381.37 811.473 1386.22C814.093 1391.06 817.016 1395.5 820.24 1399.54H771.267C772.879 1395.3 773.383 1390.86 772.778 1386.22C772.375 1381.37 771.569 1376.73 770.36 1372.29L755.547 1318.4L740.432 1318.71V1372.29C740.432 1376.93 740.835 1381.68 741.641 1386.52C742.447 1391.16 743.556 1395.5 744.966 1399.54H701.132C702.543 1395.5 703.651 1391.16 704.458 1386.52C705.264 1381.68 705.667 1376.93 705.667 1372.29V1214.87ZM740.432 1219.71V1286.62H751.013C756.656 1286.62 761.392 1285.71 765.221 1283.89C769.05 1282.07 772.073 1279.65 774.29 1276.62C776.507 1273.6 778.119 1270.07 779.127 1266.03C780.135 1261.79 780.638 1257.45 780.638 1253.01C780.638 1248.37 780.135 1244.03 779.127 1239.99C778.321 1235.96 776.708 1232.42 774.29 1229.4C772.073 1226.37 769.05 1224.05 765.221 1222.43C761.593 1220.62 756.958 1219.71 751.315 1219.71H740.432Z" fill="white"/>
<path d="M975.727 1293.28C975.727 1309.02 975.021 1323.65 973.611 1337.17C972.2 1350.7 969.277 1362.4 964.844 1372.29C960.41 1382.18 954.061 1389.95 945.798 1395.6C937.737 1401.25 926.854 1404.08 913.15 1404.08C899.647 1404.08 888.764 1401.25 880.501 1395.6C872.238 1389.95 865.889 1382.18 861.455 1372.29C857.022 1362.4 854.099 1350.7 852.689 1337.17C851.278 1323.65 850.572 1309.02 850.572 1293.28C850.572 1277.53 851.278 1263 852.689 1249.68C854.301 1236.16 857.324 1224.45 861.758 1214.56C866.191 1204.67 872.54 1197 880.803 1191.55C889.267 1185.9 900.251 1183.08 913.754 1183.08C927.459 1183.08 938.342 1185.9 946.403 1191.55C954.464 1197 960.712 1204.67 965.146 1214.56C969.58 1224.45 972.401 1236.16 973.611 1249.68C975.021 1263 975.727 1277.53 975.727 1293.28ZM886.849 1293.28C886.849 1309.62 887.554 1322.84 888.965 1332.93C890.577 1343.03 892.593 1350.9 895.011 1356.55C897.631 1362 900.453 1365.73 903.476 1367.75C906.7 1369.77 909.925 1370.78 913.15 1370.78C916.374 1370.78 919.498 1369.77 922.521 1367.75C925.746 1365.73 928.567 1362 930.985 1356.55C933.605 1350.9 935.621 1343.03 937.032 1332.93C938.644 1322.84 939.45 1309.62 939.45 1293.28C939.45 1277.13 938.644 1264.01 937.032 1253.92C935.621 1243.83 933.706 1236.06 931.288 1230.61C928.869 1224.96 926.048 1221.22 922.823 1219.41C919.8 1217.39 916.777 1216.38 913.754 1216.38C910.53 1216.38 907.305 1217.39 904.08 1219.41C901.057 1221.22 898.236 1224.96 895.616 1230.61C892.996 1236.06 890.88 1243.83 889.267 1253.92C887.655 1264.01 886.849 1277.13 886.849 1293.28Z" fill="white"/>
<path d="M1095.84 1214.87C1096.85 1210.43 1097.05 1205.88 1096.45 1201.24C1095.84 1196.4 1094.13 1191.86 1091.31 1187.62H1141.49C1139.07 1191.66 1136.65 1196.1 1134.24 1200.94C1132.02 1205.78 1130.41 1210.43 1129.4 1214.87L1086.77 1399.54H1054.73L1012.1 1214.87C1011.1 1210.43 1009.38 1205.78 1006.97 1200.94C1004.75 1196.1 1002.43 1191.66 1000.01 1187.62H1051.4C1048.58 1191.86 1046.87 1196.4 1046.27 1201.24C1045.66 1205.88 1045.86 1210.43 1046.87 1214.87L1071.36 1328.09L1095.84 1214.87Z" fill="white"/>
<path d="M1255.53 1183.08C1259.56 1184.49 1263.9 1185.6 1268.53 1186.41C1273.37 1187.22 1278.11 1187.62 1282.74 1187.62H1326.57C1331.21 1187.62 1335.85 1187.22 1340.48 1186.41C1345.32 1185.6 1349.75 1184.49 1353.78 1183.08L1361.94 1223.95C1357.91 1222.54 1353.48 1221.43 1348.64 1220.62C1344.01 1219.81 1339.37 1219.41 1334.74 1219.41H1322.64V1372.29C1322.64 1376.93 1322.95 1381.68 1323.55 1386.52C1324.36 1391.16 1325.57 1395.5 1327.18 1399.54H1283.35C1284.96 1395.5 1286.07 1391.16 1286.67 1386.52C1287.48 1381.68 1287.88 1376.93 1287.88 1372.29V1219.41H1274.58C1269.94 1219.41 1265.21 1219.81 1260.37 1220.62C1255.73 1221.43 1251.4 1222.54 1247.37 1223.95L1255.53 1183.08Z" fill="white"/>
<path d="M1517.38 1293.28C1517.38 1309.02 1516.68 1323.65 1515.27 1337.17C1513.86 1350.7 1510.93 1362.4 1506.5 1372.29C1502.07 1382.18 1495.72 1389.95 1487.46 1395.6C1479.39 1401.25 1468.51 1404.08 1454.81 1404.08C1441.3 1404.08 1430.42 1401.25 1422.16 1395.6C1413.89 1389.95 1407.55 1382.18 1403.11 1372.29C1398.68 1362.4 1395.76 1350.7 1394.35 1337.17C1392.93 1323.65 1392.23 1309.02 1392.23 1293.28C1392.23 1277.53 1392.93 1263 1394.35 1249.68C1395.96 1236.16 1398.98 1224.45 1403.41 1214.56C1407.85 1204.67 1414.2 1197 1422.46 1191.55C1430.92 1185.9 1441.91 1183.08 1455.41 1183.08C1469.12 1183.08 1480 1185.9 1488.06 1191.55C1496.12 1197 1502.37 1204.67 1506.8 1214.56C1511.24 1224.45 1514.06 1236.16 1515.27 1249.68C1516.68 1263 1517.38 1277.53 1517.38 1293.28ZM1428.51 1293.28C1428.51 1309.62 1429.21 1322.84 1430.62 1332.93C1432.23 1343.03 1434.25 1350.9 1436.67 1356.55C1439.29 1362 1442.11 1365.73 1445.13 1367.75C1448.36 1369.77 1451.58 1370.78 1454.81 1370.78C1458.03 1370.78 1461.15 1369.77 1464.18 1367.75C1467.4 1365.73 1470.22 1362 1472.64 1356.55C1475.26 1350.9 1477.28 1343.03 1478.69 1332.93C1480.3 1322.84 1481.11 1309.62 1481.11 1293.28C1481.11 1277.13 1480.3 1264.01 1478.69 1253.92C1477.28 1243.83 1475.36 1236.06 1472.94 1230.61C1470.53 1224.96 1467.7 1221.22 1464.48 1219.41C1461.46 1217.39 1458.43 1216.38 1455.41 1216.38C1452.19 1216.38 1448.96 1217.39 1445.74 1219.41C1442.71 1221.22 1439.89 1224.96 1437.27 1230.61C1434.65 1236.06 1432.54 1243.83 1430.92 1253.92C1429.31 1264.01 1428.51 1277.13 1428.51 1293.28Z" fill="white"/>
<path d="M1673.94 1343.23C1673.94 1363.41 1668.7 1378.65 1658.22 1388.94C1647.74 1399.03 1633.53 1404.08 1615.59 1404.08C1598.26 1404.08 1584.35 1399.03 1573.87 1388.94C1563.39 1378.65 1558.15 1363.41 1558.15 1343.23V1214.87C1558.15 1210.22 1557.75 1205.58 1556.95 1200.94C1556.34 1196.1 1555.23 1191.66 1553.62 1187.62H1597.45C1595.84 1191.66 1594.63 1196.1 1593.83 1200.94C1593.22 1205.58 1592.92 1210.22 1592.92 1214.87V1343.23C1592.92 1352.51 1595.04 1359.17 1599.27 1363.21C1603.5 1367.24 1609.14 1369.26 1616.2 1369.26C1623.05 1369.26 1628.59 1367.24 1632.82 1363.21C1637.06 1359.17 1639.17 1352.51 1639.17 1343.23V1214.87C1639.17 1210.22 1638.77 1205.58 1637.96 1200.94C1637.36 1196.1 1636.25 1191.66 1634.64 1187.62H1678.47C1676.86 1191.66 1675.65 1196.1 1674.84 1200.94C1674.24 1205.58 1673.94 1210.22 1673.94 1214.87V1343.23Z" fill="white"/>
<path d="M1722.43 1214.87C1722.43 1210.22 1722.02 1205.58 1721.22 1200.94C1720.61 1196.1 1719.5 1191.66 1717.89 1187.62H1772.91C1780.57 1187.62 1788.03 1188.73 1795.28 1190.95C1802.54 1193.17 1808.99 1196.9 1814.63 1202.15C1820.27 1207.2 1824.81 1213.96 1828.23 1222.43C1831.86 1230.71 1833.67 1240.9 1833.67 1253.01C1833.67 1268.35 1830.95 1280.66 1825.51 1289.95C1820.27 1299.23 1813.42 1306.19 1804.96 1310.83L1822.49 1371.99C1823.9 1376.63 1825.81 1381.37 1828.23 1386.22C1830.85 1391.06 1833.78 1395.5 1837 1399.54H1788.03C1789.64 1395.3 1790.14 1390.86 1789.54 1386.22C1789.14 1381.37 1788.33 1376.73 1787.12 1372.29L1772.31 1318.4L1757.19 1318.71V1372.29C1757.19 1376.93 1757.59 1381.68 1758.4 1386.52C1759.21 1391.16 1760.32 1395.5 1761.73 1399.54H1717.89C1719.3 1395.5 1720.41 1391.16 1721.22 1386.52C1722.02 1381.68 1722.43 1376.93 1722.43 1372.29V1214.87ZM1757.19 1219.71V1286.62H1767.77C1773.42 1286.62 1778.15 1285.71 1781.98 1283.89C1785.81 1282.07 1788.83 1279.65 1791.05 1276.62C1793.27 1273.6 1794.88 1270.07 1795.89 1266.03C1796.89 1261.79 1797.4 1257.45 1797.4 1253.01C1797.4 1248.37 1796.89 1244.03 1795.89 1239.99C1795.08 1235.96 1793.47 1232.42 1791.05 1229.4C1788.83 1226.37 1785.81 1224.05 1781.98 1222.43C1778.35 1220.62 1773.72 1219.71 1768.07 1219.71H1757.19Z" fill="white"/>
<path fill-rule="evenodd" clip-rule="evenodd" d="M1944.41 1251.89C1966.78 1251.89 1984.92 1270.02 1984.92 1292.39C1984.92 1314.76 1966.78 1332.9 1944.41 1332.9C1922.04 1332.9 1903.9 1314.76 1903.9 1292.39C1903.9 1270.02 1922.04 1251.89 1944.41 1251.89Z" fill="white"/>
<path fill-rule="evenodd" clip-rule="evenodd" d="M76.5926 1251.89C98.9631 1251.89 117.1 1270.02 117.1 1292.39C117.1 1314.76 98.9631 1332.9 76.5926 1332.9C54.2212 1332.9 36.0859 1314.76 36.0859 1292.39C36.0859 1270.02 54.2212 1251.89 76.5926 1251.89Z" fill="white"/>
<path fill-rule="evenodd" clip-rule="evenodd" d="M55.8945 1502.74H465.459V1516.24H55.8945V1502.74Z" fill="white"/>
<path fill-rule="evenodd" clip-rule="evenodd" d="M55.8945 1572.49H465.459V1586H55.8945V1572.49Z" fill="white"/>
<path fill-rule="evenodd" clip-rule="evenodd" d="M1527.43 1502.74H1937V1516.24H1527.43V1502.74Z" fill="white"/>
<path fill-rule="evenodd" clip-rule="evenodd" d="M1527.43 1572.49H1937V1586H1527.43V1572.49Z" fill="white"/>
<path d="M639.232 1507.21H631.168H631.04C628.096 1507.21 625.792 1507.21 624 1507.08C625.536 1509.51 626.304 1512.71 626.304 1516.42V1573.25C626.304 1576.97 625.536 1580.17 624 1582.73C625.152 1582.6 627.2 1582.6 630.272 1582.6H630.4H641.152C649.728 1582.6 656.256 1579.27 660.736 1572.61C665.216 1566.09 667.392 1556.74 667.392 1544.58C667.392 1519.62 658.048 1507.21 639.232 1507.21ZM641.28 1574.53H637.312V1515.27H640.64C651.008 1515.27 656.256 1525.25 656.256 1545.09C656.256 1564.68 651.264 1574.53 641.28 1574.53Z" fill="white"/>
<path d="M718.175 1575.69L705.503 1520.26C705.119 1517.57 704.991 1515.91 704.991 1515.53C704.991 1514.12 705.375 1512.97 706.015 1512.07C704.607 1512.2 702.431 1512.2 699.743 1512.2H699.615H698.719H698.591C695.903 1512.2 693.727 1512.2 692.319 1512.07C692.959 1512.97 693.343 1514.12 693.343 1515.53C693.343 1516.42 693.087 1518.21 692.703 1520.77L680.671 1574.41C679.903 1578.12 678.495 1580.81 676.575 1582.73C677.471 1582.73 678.751 1582.73 680.415 1582.6C682.079 1582.6 683.231 1582.6 683.999 1582.6C684.895 1582.6 686.047 1582.6 687.711 1582.6C689.375 1582.73 690.527 1582.73 691.423 1582.73C690.143 1581.83 689.503 1580.42 689.503 1578.76C689.503 1577.99 689.631 1576.97 689.887 1575.69L691.423 1567.62L691.551 1567.11H705.887L706.015 1567.62L707.551 1575.69C707.807 1576.97 707.935 1577.99 707.935 1578.89C707.935 1580.42 707.423 1581.7 706.399 1582.73C707.295 1582.73 708.575 1582.73 710.239 1582.6C711.903 1582.6 713.183 1582.6 714.079 1582.6C714.847 1582.6 716.127 1582.6 717.791 1582.6C719.455 1582.73 720.735 1582.73 721.631 1582.73C720.351 1581.32 719.199 1579.01 718.175 1575.69ZM704.223 1558.79H693.215C696.927 1539.46 698.719 1529.61 698.719 1529.22C698.719 1529.73 700.511 1539.59 704.223 1558.79Z" fill="white"/>
<path d="M765.283 1550.09H763.491C760.163 1550.09 757.987 1550.09 756.963 1549.96C758.883 1552.13 759.779 1555.08 759.779 1558.79V1574.28C758.243 1574.66 756.835 1574.92 755.683 1574.92C751.203 1574.92 747.491 1572.49 744.803 1567.75C741.987 1563.01 740.579 1556.23 740.579 1547.4C740.579 1538.82 741.987 1531.91 744.675 1526.92C747.363 1521.93 751.331 1519.49 756.323 1519.49C761.827 1519.49 766.051 1522.31 768.995 1527.94V1514.12C765.411 1512.2 761.443 1511.17 756.963 1511.17C748.387 1511.17 741.731 1514.37 737.123 1520.9C732.387 1527.43 730.083 1536.26 730.083 1547.4C730.083 1558.28 732.259 1567.11 736.611 1573.64C740.963 1580.29 746.851 1583.62 754.275 1583.62C756.195 1583.62 758.499 1583.37 761.187 1582.73C763.747 1582.09 765.411 1581.83 766.307 1581.83C767.715 1581.83 768.611 1582.21 768.995 1582.85V1558.79C768.995 1555.08 769.891 1552.13 771.683 1549.96C770.531 1550.09 768.483 1550.09 765.283 1550.09Z" fill="white"/>
<path d="M804.076 1574.28H797.548V1545.09C801.9 1545.09 804.844 1545.09 806.252 1545.22C808.812 1545.35 810.988 1546.12 812.652 1547.27C812.524 1546.5 812.524 1544.45 812.524 1541.13C812.524 1537.8 812.524 1535.75 812.652 1534.98C810.988 1536.13 809.068 1536.9 806.764 1537.03C805.356 1537.16 802.284 1537.16 797.548 1537.16V1520.65H808.3C812.012 1520.65 814.572 1521.93 816.108 1524.61L815.852 1512.2H787.18C786.924 1512.2 786.54 1512.2 786.156 1512.07C785.644 1512.07 785.26 1512.07 785.132 1512.07C786.54 1514.25 787.18 1517.06 787.18 1520.77V1573.89C787.18 1577.61 786.54 1580.55 785.132 1582.73C786.156 1582.6 788.076 1582.6 790.892 1582.6H815.724L816.876 1568.39C814.956 1572.36 810.732 1574.28 804.076 1574.28Z" fill="white"/>
<path d="M831.348 1566.47L831.476 1580.29C835.188 1582.47 839.668 1583.62 845.044 1583.62C850.676 1583.62 855.412 1582.09 859.252 1578.89C862.964 1575.69 864.884 1571.33 864.884 1565.57C864.884 1563.27 864.628 1561.09 863.988 1559.05C863.348 1557 862.324 1555.08 860.916 1553.29C859.508 1551.49 858.228 1550.09 857.332 1548.93C856.308 1547.91 854.772 1546.5 852.724 1544.58C850.548 1542.79 849.14 1541.64 848.5 1541C843.252 1536.13 840.564 1531.53 840.564 1527.3C840.564 1524.61 841.46 1522.69 843.124 1521.41C844.788 1520.26 846.708 1519.62 849.012 1519.62C854.516 1519.62 858.996 1522.57 862.452 1528.45V1514.63C858.228 1512.33 853.748 1511.17 849.14 1511.17C843.892 1511.17 839.412 1512.71 835.7 1515.91C831.988 1519.11 830.068 1523.59 830.068 1529.35C830.068 1533.57 831.092 1537.16 833.012 1540.23C834.932 1543.43 837.748 1546.5 841.332 1549.7C841.716 1549.96 842.612 1550.73 844.02 1552.01C845.428 1553.29 846.452 1554.05 846.836 1554.44C847.22 1554.82 847.86 1555.59 849.012 1556.61C850.164 1557.77 850.932 1558.53 851.316 1559.05C851.7 1559.69 852.084 1560.45 852.724 1561.35C853.364 1562.25 853.748 1563.14 854.004 1564.04C854.132 1564.93 854.26 1565.7 854.26 1566.6C854.26 1569.03 853.364 1571.08 851.7 1572.74C849.908 1574.41 847.732 1575.17 845.172 1575.17C839.796 1575.17 835.188 1572.23 831.348 1566.47Z" fill="white"/>
<path d="M900.026 1520.26C902.842 1520.26 905.146 1520.65 906.81 1521.29C908.474 1521.93 909.882 1523.33 910.906 1525.51L910.522 1512.07C909.242 1512.07 906.682 1512.07 902.714 1512.07C898.746 1512.2 895.674 1512.2 893.498 1512.2C891.194 1512.2 888.122 1512.2 884.282 1512.07C880.314 1512.07 877.754 1512.07 876.346 1512.07L875.962 1525.25C876.986 1523.08 878.394 1521.67 880.314 1521.03C882.234 1520.39 884.794 1520.13 887.994 1520.13H888.25V1573.89C888.25 1577.61 887.61 1580.55 886.202 1582.73C887.226 1582.6 889.146 1582.6 891.962 1582.6H894.906C897.722 1582.6 899.642 1582.6 900.666 1582.73C899.258 1580.55 898.618 1577.61 898.618 1573.89V1520.26H900.026Z" fill="white"/>
<path d="M957.325 1575.69L944.653 1520.26C944.269 1517.57 944.141 1515.91 944.141 1515.53C944.141 1514.12 944.525 1512.97 945.165 1512.07C943.757 1512.2 941.581 1512.2 938.893 1512.2H938.765H937.869H937.741C935.053 1512.2 932.877 1512.2 931.469 1512.07C932.109 1512.97 932.493 1514.12 932.493 1515.53C932.493 1516.42 932.237 1518.21 931.853 1520.77L919.821 1574.41C919.053 1578.12 917.645 1580.81 915.725 1582.73C916.621 1582.73 917.901 1582.73 919.565 1582.6C921.229 1582.6 922.381 1582.6 923.149 1582.6C924.045 1582.6 925.197 1582.6 926.861 1582.6C928.525 1582.73 929.677 1582.73 930.573 1582.73C929.293 1581.83 928.653 1580.42 928.653 1578.76C928.653 1577.99 928.781 1576.97 929.037 1575.69L930.573 1567.62L930.701 1567.11H945.037L945.165 1567.62L946.701 1575.69C946.957 1576.97 947.085 1577.99 947.085 1578.89C947.085 1580.42 946.573 1581.7 945.549 1582.73C946.445 1582.73 947.725 1582.73 949.389 1582.6C951.053 1582.6 952.333 1582.6 953.229 1582.6C953.997 1582.6 955.277 1582.6 956.941 1582.6C958.605 1582.73 959.885 1582.73 960.781 1582.73C959.501 1581.32 958.349 1579.01 957.325 1575.69ZM943.373 1558.79H932.365C936.077 1539.46 937.869 1529.61 937.869 1529.22C937.869 1529.73 939.661 1539.59 943.373 1558.79Z" fill="white"/>
<path d="M1012.18 1520.9C1012.18 1517.19 1012.82 1514.25 1014.23 1512.07C1013.21 1512.2 1011.29 1512.2 1008.47 1512.2H1008.34H1006.68H1006.55C1003.73 1512.2 1001.81 1512.2 1000.79 1512.07C1002.2 1514.25 1002.84 1517.19 1002.84 1520.9L1002.97 1520.77C1002.97 1526.28 1002.97 1534.21 1003.09 1544.71C1003.09 1555.33 1003.09 1560.71 1003.09 1560.84C1002.58 1558.53 997.589 1545.22 988.245 1520.77C986.837 1517.06 986.197 1514.63 986.197 1513.22C986.197 1512.84 986.325 1512.45 986.453 1512.07C985.557 1512.2 983.637 1512.2 980.949 1512.2H980.821H977.877H977.749C974.933 1512.2 973.013 1512.2 971.989 1512.07C973.397 1514.25 974.037 1517.19 974.037 1520.9V1573.89C974.037 1577.61 973.397 1580.55 971.989 1582.73C973.013 1582.6 974.933 1582.6 977.749 1582.6H979.669C982.485 1582.6 984.405 1582.6 985.429 1582.73C984.021 1580.55 983.381 1577.61 983.381 1573.89C983.381 1547.14 983.381 1533.06 983.253 1531.91C983.509 1533.19 988.629 1547.27 998.613 1574.02C998.613 1574.15 998.613 1574.15 998.741 1574.15C998.741 1574.15 998.741 1574.15 998.741 1574.28C998.741 1574.41 998.869 1574.53 998.997 1574.92C1000.15 1578.89 1000.28 1581.57 999.253 1582.73C1000.41 1582.6 1002.33 1582.6 1005.27 1582.6H1005.4H1008.34H1008.47C1011.29 1582.6 1013.08 1582.6 1013.85 1582.73C1012.69 1581.45 1012.18 1578.5 1012.18 1573.89V1520.9Z" fill="white"/>
<path d="M1075.16 1515.91C1078.24 1515.91 1080.67 1516.29 1082.59 1516.93C1084.38 1517.7 1085.79 1519.24 1086.81 1521.54L1086.43 1507.08C1083.23 1507.21 1077.21 1507.21 1068.12 1507.21C1059.04 1507.21 1053.02 1507.21 1049.82 1507.08L1049.43 1521.29C1050.59 1518.98 1052.12 1517.45 1054.04 1516.81C1055.96 1516.17 1058.78 1515.78 1062.24 1515.78H1062.49V1573.25C1062.49 1577.35 1061.72 1580.55 1060.32 1582.73C1061.47 1582.6 1063.52 1582.6 1066.59 1582.6H1069.66C1072.6 1582.6 1074.65 1582.6 1075.8 1582.73C1074.4 1580.55 1073.63 1577.35 1073.63 1573.25V1515.91H1075.16Z" fill="white"/>
<path d="M1118.89 1583.62C1104.69 1583.62 1097.52 1571.59 1097.52 1547.4C1097.52 1523.21 1104.69 1511.17 1118.89 1511.17C1133.1 1511.17 1140.27 1523.33 1140.27 1547.53C1140.27 1571.59 1133.1 1583.62 1118.89 1583.62ZM1119.02 1519.11C1116.84 1519.11 1114.93 1520.01 1113.39 1521.93C1111.85 1523.85 1110.7 1526.28 1110.06 1529.35C1109.29 1532.42 1108.78 1535.37 1108.52 1538.31C1108.14 1541.25 1108.01 1544.2 1108.01 1547.4C1108.01 1550.6 1108.14 1553.67 1108.52 1556.61C1108.78 1559.56 1109.29 1562.63 1110.06 1565.57C1110.7 1568.65 1111.85 1571.08 1113.39 1572.87C1114.93 1574.79 1116.84 1575.69 1119.02 1575.69C1126.19 1575.69 1129.77 1566.21 1129.77 1547.4C1129.77 1528.58 1126.19 1519.11 1119.02 1519.11Z" fill="white"/>
<path d="M1190.67 1512.2H1190.54H1189.9H1189.78C1187.09 1512.2 1184.91 1512.2 1183.25 1512.07C1184.66 1514.25 1185.3 1517.06 1185.3 1520.77V1562.37C1185.3 1566.34 1184.53 1569.29 1182.99 1571.46C1181.33 1573.64 1179.02 1574.66 1176.08 1574.66C1170.06 1574.66 1166.99 1570.57 1166.99 1562.37V1520.77C1166.99 1517.06 1167.63 1514.25 1169.04 1512.07C1167.38 1512.2 1165.2 1512.2 1162.51 1512.2H1162.38H1161.23H1161.1C1158.42 1512.2 1156.24 1512.2 1154.58 1512.07C1155.98 1514.25 1156.62 1517.06 1156.62 1520.77V1560.84C1156.5 1568.01 1158.16 1573.51 1161.62 1577.35C1165.07 1581.32 1169.68 1583.24 1175.57 1583.24C1181.58 1583.24 1186.32 1581.32 1189.9 1577.35C1193.36 1573.38 1195.15 1567.88 1195.15 1560.84V1520.77C1195.15 1517.06 1195.79 1514.25 1197.2 1512.07C1195.54 1512.2 1193.36 1512.2 1190.67 1512.2Z" fill="white"/>
<path d="M1235.46 1548.93C1239.17 1548.29 1242.24 1546.12 1244.93 1542.66C1247.62 1539.21 1248.9 1535.11 1248.9 1530.37C1248.9 1525.13 1247.1 1520.77 1243.39 1517.32C1239.68 1513.86 1234.05 1512.2 1226.75 1512.2H1217.92H1217.79C1215.1 1512.2 1212.93 1512.2 1211.26 1512.07C1212.67 1514.25 1213.31 1517.06 1213.31 1520.77V1573.89C1213.31 1577.61 1212.67 1580.55 1211.26 1582.73C1212.29 1582.6 1214.21 1582.6 1217.02 1582.6H1219.97C1222.78 1582.6 1224.7 1582.6 1225.73 1582.73C1224.32 1580.55 1223.68 1577.61 1223.68 1573.89V1550.73C1226.37 1551.11 1228.54 1552.65 1230.34 1555.33C1232.13 1558.02 1233.41 1560.97 1234.18 1564.17C1234.82 1567.37 1235.84 1570.82 1236.99 1574.53C1238.14 1578.25 1239.3 1580.93 1240.7 1582.6H1254.27C1252.35 1581.7 1250.56 1579.01 1248.9 1574.28C1247.1 1569.54 1245.06 1564.68 1242.88 1559.43C1240.7 1554.18 1238.14 1550.73 1235.46 1548.93ZM1226.88 1543.69H1223.68V1519.62H1227.52C1231.23 1519.62 1234.05 1520.77 1236.1 1523.08C1238.02 1525.51 1239.04 1528.2 1239.04 1531.4C1239.04 1534.73 1237.89 1537.54 1235.71 1539.97C1233.54 1542.41 1230.59 1543.69 1226.88 1543.69Z" fill="white"/>
<path d="M1276.73 1520.77C1276.73 1517.06 1277.38 1514.25 1278.78 1512.07C1277.12 1512.2 1274.94 1512.2 1272.26 1512.2H1272.13H1270.98H1270.85C1268.16 1512.2 1265.98 1512.2 1264.32 1512.07C1265.73 1514.25 1266.37 1517.06 1266.37 1520.77V1573.89C1266.37 1577.61 1265.73 1580.55 1264.32 1582.73C1265.34 1582.6 1267.26 1582.6 1270.08 1582.6H1273.02C1275.84 1582.6 1277.76 1582.6 1278.78 1582.73C1277.38 1580.55 1276.73 1577.61 1276.73 1573.89V1520.77Z" fill="white"/>
<path d="M1294.15 1566.47L1294.28 1580.29C1297.99 1582.47 1302.47 1583.62 1307.84 1583.62C1313.48 1583.62 1318.21 1582.09 1322.05 1578.89C1325.76 1575.69 1327.68 1571.33 1327.68 1565.57C1327.68 1563.27 1327.43 1561.09 1326.79 1559.05C1326.15 1557 1325.12 1555.08 1323.72 1553.29C1322.31 1551.49 1321.03 1550.09 1320.13 1548.93C1319.11 1547.91 1317.57 1546.5 1315.52 1544.58C1313.35 1542.79 1311.94 1541.64 1311.3 1541C1306.05 1536.13 1303.36 1531.53 1303.36 1527.3C1303.36 1524.61 1304.26 1522.69 1305.92 1521.41C1307.59 1520.26 1309.51 1519.62 1311.81 1519.62C1317.32 1519.62 1321.8 1522.57 1325.25 1528.45V1514.63C1321.03 1512.33 1316.55 1511.17 1311.94 1511.17C1306.69 1511.17 1302.21 1512.71 1298.5 1515.91C1294.79 1519.11 1292.87 1523.59 1292.87 1529.35C1292.87 1533.57 1293.89 1537.16 1295.81 1540.23C1297.73 1543.43 1300.55 1546.5 1304.13 1549.7C1304.52 1549.96 1305.41 1550.73 1306.82 1552.01C1308.23 1553.29 1309.25 1554.05 1309.64 1554.44C1310.02 1554.82 1310.66 1555.59 1311.81 1556.61C1312.96 1557.77 1313.73 1558.53 1314.12 1559.05C1314.5 1559.69 1314.88 1560.45 1315.52 1561.35C1316.16 1562.25 1316.55 1563.14 1316.8 1564.04C1316.93 1564.93 1317.06 1565.7 1317.06 1566.6C1317.06 1569.03 1316.16 1571.08 1314.5 1572.74C1312.71 1574.41 1310.53 1575.17 1307.97 1575.17C1302.6 1575.17 1297.99 1572.23 1294.15 1566.47Z" fill="white"/>
<path d="M1394.41 1520.9C1394.41 1517.19 1395.05 1514.25 1396.46 1512.07C1395.44 1512.2 1393.52 1512.2 1390.7 1512.2H1390.57H1388.14H1388.01C1385.32 1512.2 1383.4 1512.2 1382.51 1512.07C1382.64 1512.45 1382.76 1512.84 1382.76 1513.22C1382.76 1514.37 1382.25 1516.42 1381.23 1519.37C1373.8 1538.95 1369.96 1549.7 1369.58 1551.37C1369.2 1549.7 1365.23 1539.46 1357.68 1520.65L1357.8 1520.77C1356.4 1517.06 1355.76 1514.63 1355.76 1513.22C1355.76 1512.84 1355.88 1512.45 1356.01 1512.07C1355.12 1512.2 1353.2 1512.2 1350.51 1512.2H1350.38H1347.44H1347.31C1344.49 1512.2 1342.57 1512.2 1341.55 1512.07C1342.96 1514.25 1343.6 1517.19 1343.6 1520.9V1573.89C1343.6 1577.61 1342.96 1580.55 1341.55 1582.73C1342.57 1582.6 1344.49 1582.6 1347.31 1582.6H1348.84C1351.66 1582.6 1353.58 1582.6 1354.6 1582.73C1353.45 1580.81 1352.68 1578.25 1352.56 1574.92C1352.56 1571.33 1352.56 1566.21 1352.68 1559.43C1352.68 1552.65 1352.68 1548.04 1352.68 1545.35C1352.68 1537.29 1352.56 1532.81 1352.43 1531.91C1352.56 1532.04 1358.06 1545.61 1369.07 1572.36C1379.31 1546.76 1384.56 1533.32 1384.94 1531.91C1384.68 1535.24 1384.56 1544.97 1384.56 1560.97V1573.89C1384.56 1577.61 1383.92 1580.55 1382.51 1582.73C1383.53 1582.6 1385.45 1582.6 1388.27 1582.6H1390.7C1393.52 1582.6 1395.44 1582.6 1396.46 1582.73C1395.05 1580.55 1394.41 1577.61 1394.41 1573.89V1520.9Z" fill="white"/>
</svg>
