<!DOCTYPE svg PUBLIC "-//W3C//DTD SVG 1.1//EN" "http://www.w3.org/Graphics/SVG/1.1/DTD/svg11.dtd">
<!-- Uploaded to: SVG Repo, www.svgrepo.com, Transformed by: SVG Repo Mixer Tools -->
<svg fill="#002d2d" width="800px" height="800px" viewBox="0 0 256 256" id="Flat" xmlns="http://www.w3.org/2000/svg">
<g id="SVGRepo_bgCarrier" stroke-width="0"/>
<g id="SVGRepo_tracerCarrier" stroke-linecap="round" stroke-linejoin="round"/>
<g id="SVGRepo_iconCarrier"> <path d="M148,152a60,60,0,0,0,0-120H88a8.00039,8.00039,0,0,0-8,8v96H56a8,8,0,0,0,0,16H80v16H56a8,8,0,0,0,0,16H80v32a8,8,0,0,0,16,0V184h48a8,8,0,0,0,0-16H96V152ZM96,48h52a44,44,0,0,1,0,88H96Z"/> </g>
</svg>